<svg xmlns="http://www.w3.org/2000/svg" xmlns:xlink="http://www.w3.org/1999/xlink" width="1080" zoomAndPan="magnify" viewBox="0 0 810 809.999993" height="1080" preserveAspectRatio="xMidYMid meet" version="1.0"><defs><clipPath id="id1"><path d="M 155 312 L 665 312 L 665 750.789062 L 155 750.789062 Z M 155 312 " clip-rule="nonzero"/></clipPath><clipPath id="id2"><path d="M 183 59.289062 L 382 59.289062 L 382 298 L 183 298 Z M 183 59.289062 " clip-rule="nonzero"/></clipPath><clipPath id="id3"><path d="M 434 59.289062 L 634 59.289062 L 634 298 L 434 298 Z M 434 59.289062 " clip-rule="nonzero"/></clipPath></defs><g clip-path="url(#id1)"><path fill="rgb(49.01886%, 35.289001%, 31.369019%)" d="M 574.34375 479.417969 C 560.019531 473.1875 540.515625 444.777344 526.921875 410.332031 C 517.785156 387.171875 490.539062 318.6875 416.722656 313.460938 C 415.25 313.140625 413.726562 312.953125 412.160156 312.953125 C 411.40625 312.953125 410.734375 313.0625 409.988281 313.078125 C 409.246094 313.0625 408.570312 312.953125 407.816406 312.953125 C 406.25 312.953125 404.726562 313.140625 403.253906 313.460938 C 329.445312 318.691406 302.199219 387.171875 293.058594 410.332031 C 279.460938 444.777344 259.957031 473.1875 245.628906 479.425781 C 184.398438 506.070312 147.667969 570.566406 156.308594 636.257812 C 164.230469 696.492188 207.984375 739.738281 270.488281 749.109375 C 277.800781 750.203125 285.175781 750.75 292.546875 750.75 C 312.640625 750.75 332.738281 746.699219 351.648438 738.746094 C 359.921875 735.265625 367.398438 731.230469 374.628906 727.328125 C 387.128906 720.582031 398.074219 714.738281 409.988281 713.386719 C 421.902344 714.738281 432.851562 720.582031 445.351562 727.328125 C 452.578125 731.226562 460.054688 735.273438 468.320312 738.746094 C 487.238281 746.695312 507.339844 750.75 527.429688 750.75 C 534.796875 750.75 542.167969 750.203125 549.480469 749.109375 C 611.988281 739.738281 655.742188 696.492188 663.667969 636.257812 C 672.308594 570.566406 635.582031 506.070312 574.34375 479.417969 Z M 574.34375 479.417969 " fill-opacity="1" fill-rule="nonzero"/></g><path fill="rgb(49.01886%, 35.289001%, 31.369019%)" d="M 218.851562 370.4375 C 210.25 310.925781 165.902344 266.054688 115.699219 266.054688 C 111.675781 266.054688 107.613281 266.351562 103.613281 266.921875 C 49.460938 274.753906 13.035156 333.9375 22.421875 398.855469 C 31.027344 458.359375 75.375 503.230469 125.574219 503.230469 C 129.597656 503.230469 133.667969 502.933594 137.664062 502.363281 C 191.8125 494.511719 228.234375 435.335938 218.851562 370.4375 Z M 218.851562 370.4375 " fill-opacity="1" fill-rule="nonzero"/><g clip-path="url(#id2)"><path fill="rgb(49.01886%, 35.289001%, 31.369019%)" d="M 282.59375 297.167969 C 337.308594 297.167969 381.828125 243.808594 381.828125 178.226562 C 381.828125 112.644531 337.3125 59.289062 282.59375 59.289062 C 227.875 59.289062 183.355469 112.644531 183.355469 178.226562 C 183.355469 243.808594 227.875 297.167969 282.59375 297.167969 Z M 282.59375 297.167969 " fill-opacity="1" fill-rule="nonzero"/></g><path fill="rgb(49.01886%, 35.289001%, 31.369019%)" d="M 773.253906 307.398438 C 756.058594 282.546875 731.507812 267.839844 704.132812 265.980469 C 649.386719 262.207031 601.484375 312.757812 597.066406 377.910156 C 594.972656 408.726562 602.722656 438.546875 618.882812 461.890625 C 636.082031 486.738281 660.632812 501.445312 688.007812 503.304688 C 689.921875 503.4375 691.839844 503.496094 693.738281 503.496094 C 746.285156 503.496094 790.804688 454.25 795.074219 391.375 C 797.167969 360.558594 789.417969 330.738281 773.253906 307.398438 Z M 773.253906 307.398438 " fill-opacity="1" fill-rule="nonzero"/><g clip-path="url(#id3)"><path fill="rgb(49.01886%, 35.289001%, 31.369019%)" d="M 534.113281 297.167969 C 588.832031 297.167969 633.347656 243.808594 633.347656 178.226562 C 633.347656 112.644531 588.832031 59.289062 534.113281 59.289062 C 479.398438 59.289062 434.878906 112.644531 434.878906 178.226562 C 434.878906 243.808594 479.398438 297.167969 534.113281 297.167969 Z M 534.113281 297.167969 " fill-opacity="1" fill-rule="nonzero"/></g></svg>